<svg xmlns="http://www.w3.org/2000/svg" viewBox="0 0 36.34 22"><defs><style>.cls-1{fill:#5b8dc9;}.cls-2{fill:#fcfcfc;}</style></defs><title>logo</title><g id="Layer_2" data-name="Layer 2"><g id="Layer_1-2" data-name="Layer 1"><rect class="cls-1" y="4.5" width="1" height="13"/><rect class="cls-1" x="3" width="1" height="22"/><rect class="cls-1" x="6" y="4.5" width="1" height="13"/><rect class="cls-1" x="9" width="1" height="22"/><rect class="cls-1" x="12" y="4.5" width="1" height="13"/><path class="cls-2" d="M22.77,13.89H21.71l-.34-1.11h-1.7l-.33,1.11H18.27l1.64-4.67h1.21ZM19.92,12h1.21l-.52-1.71c0-.12-.07-.23-.09-.31C20.46,10.19,20.26,10.87,19.92,12Z"/><path class="cls-2" d="M25.33,10a1,1,0,0,0-.86.42,2,2,0,0,0-.3,1.17c0,1,.39,1.55,1.16,1.55a3.73,3.73,0,0,0,1.19-.24v.83a3.25,3.25,0,0,1-1.28.24,2,2,0,0,1-1.55-.62,2.6,2.6,0,0,1-.54-1.77,2.45,2.45,0,0,1,.59-1.75,2,2,0,0,1,1.59-.65,3.13,3.13,0,0,1,1.37.33l-.32.8A2.54,2.54,0,0,0,25.33,10Z"/><path class="cls-2" d="M31.57,11.69v-.36c0-.09,0-.45.05-1.08h0l-1.2,3.64h-.9l-1.13-3.65h0c0,.77.06,1.26.06,1.49v2.16h-.89V9.23h1.35L30,12.79h0l1.17-3.56h1.34v4.66h-.92Z"/><path class="cls-2" d="M36.34,13.08v.81H33.67V9.23h2.67V10H34.65v1h1.58v.8H34.65v1.21Z"/></g></g></svg>